<?xml version="1.0" encoding="UTF-8"?>
<svg width="17px" height="17px" viewBox="0 0 17 17" version="1.1" xmlns="http://www.w3.org/2000/svg" xmlns:xlink="http://www.w3.org/1999/xlink">
    <!-- Generator: Sketch 57.1 (83088) - https://sketch.com -->
    <title>Contact-active</title>
    <desc>Created with Sketch.</desc>
    <g id="Page-1" stroke="none" stroke-width="1" fill="none" fill-rule="evenodd">
        <g id="Artboard-Copy-20" transform="translate(-274.000000, -7.000000)">
            <g id="Contact-active" transform="translate(274.000000, 7.000000)">
                <path d="M1.14840593,4.95957368 L7.64840593,1.90075015 C8.18776661,1.64693336 8.81223339,1.64693336 9.35159407,1.90075015 L15.8515941,4.95957368 C16.5525789,5.28944891 17,5.99448698 17,6.76921109 L17,14.5 C17,15.6045695 16.1045695,16.5 15,16.5 L2,16.5 C0.8954305,16.5 0,15.6045695 0,14.5 L0,6.76921109 C0,5.99448698 0.447421066,5.28944891 1.14840593,4.95957368 Z M2,6.76921109 L2,14.5 L15,14.5 L15,6.76921109 L8.5,3.71038756 L2,6.76921109 Z" id="Rectangle-Copy-2" fill="#0D88D1" fill-rule="nonzero"></path>
                <path d="M4,0 L13,0 C14.1045695,-2.02906125e-16 15,0.8954305 15,2 L15,13 C15,14.1045695 14.1045695,15 13,15 L4,15 C2.8954305,15 2,14.1045695 2,13 L2,2 C2,0.8954305 2.8954305,2.02906125e-16 4,0 Z" id="Rectangle-Copy-4" fill="#FFFFFF"></path>
                <path d="M4,0 L13,0 C14.1045695,0 15,0.8954305 15,2 L15,13 C15,14.1045695 14.1045695,15 13,15 L4,15 C2.8954305,15 2,14.1045695 2,13 L2,2 C2,0.8954305 2.8954305,0 4,0 Z M4,2 L4,13 L13,13 L13,2 L4,2 Z" id="Rectangle-Copy-3" fill="#0D88D1" fill-rule="nonzero"></path>
                <path d="M6.41666667,5.5 L10.5833333,5.5 C11.1356181,5.5 11.5833333,5.05228475 11.5833333,4.5 C11.5833333,3.94771525 11.1356181,3.5 10.5833333,3.5 L6.41666667,3.5 C5.86438192,3.5 5.41666667,3.94771525 5.41666667,4.5 C5.41666667,5.05228475 5.86438192,5.5 6.41666667,5.5 Z" id="Line-2" fill="#0D88D1" fill-rule="nonzero"></path>
                <path d="M7.25,8.5 L9.75,8.5 C10.3022847,8.5 10.75,8.05228475 10.75,7.5 C10.75,6.94771525 10.3022847,6.5 9.75,6.5 L7.25,6.5 C6.69771525,6.5 6.25,6.94771525 6.25,7.5 C6.25,8.05228475 6.69771525,8.5 7.25,8.5 Z" id="Line-2-Copy" fill="#0D88D1" fill-rule="nonzero"></path>
                <path d="M1.63570725,5.84705303 L7.07461882,10.3261567 L7.07461882,10.3261567 L7.86429275,10.9764764 C8.23354856,11.2805694 8.76645144,11.2805694 9.13570725,10.9764764 L15.3642927,5.84705303 C15.790618,5.49596161 16.4208388,5.55695072 16.7719302,5.98327601 C16.9193758,6.16231704 17,6.38704387 17,6.61898327 L17,14.5 C17,15.6045695 16.1045695,16.5 15,16.5 L2,16.5 C0.8954305,16.5 1.3527075e-16,15.6045695 0,14.5 L0,6.61898327 C-4.00702282e-16,6.06669852 0.44771525,5.61898327 1,5.61898327 C1.23193939,5.61898327 1.45666622,5.69960748 1.63570725,5.84705303 Z" id="Rectangle-Copy-5" fill="#FFFFFF"></path>
                <path d="M1.63570725,5.84705303 L7.07461882,10.3261567 L7.86429275,10.9764764 C8.23354856,11.2805694 8.76645144,11.2805694 9.13570725,10.9764764 L15.3642927,5.84705303 C15.790618,5.49596161 16.4208388,5.55695072 16.7719302,5.98327601 C16.9193758,6.16231704 17,6.38704387 17,6.61898327 L17,14.5 C17,15.6045695 16.1045695,16.5 15,16.5 L2,16.5 C0.8954305,16.5 0,15.6045695 0,14.5 L0,6.61898327 C0,6.06669852 0.44771525,5.61895498 1,5.61895498 C1.23193939,5.61895498 1.45666622,5.69960748 1.63570725,5.84705303 Z M2,14.5 L15,14.5 L15,8.73796653 L10.4071218,12.5203369 C9.29935433,13.4326159 7.70064567,13.4326159 6.59287824,12.5203369 L2,8.73796653 L2,14.5 Z" id="Rectangle-Copy" fill="#0D88D1" fill-rule="nonzero"></path>
            </g>
        </g>
    </g>
</svg>