<?xml version="1.0" encoding="UTF-8"?>
<svg width="16px" height="17px" viewBox="0 0 16 17" version="1.1" xmlns="http://www.w3.org/2000/svg" xmlns:xlink="http://www.w3.org/1999/xlink">
    <!-- Generator: Sketch 57.1 (83088) - https://sketch.com -->
    <title>Home-active</title>
    <desc>Created with Sketch.</desc>
    <g id="Page-1" stroke="none" stroke-width="1" fill="none" fill-rule="evenodd">
        <g id="Artboard-Copy-20" transform="translate(-14.000000, -7.000000)">
            <g id="Home-active" transform="translate(14.000000, 7.000000)">
                <rect id="Rectangle" fill-opacity="0.01" fill="#FFFFFF" x="0.5" y="0" width="15" height="17"></rect>
                <path d="M8.68548335,0.645371469 L14.6854833,6.29427429 C14.8861979,6.48324378 15,6.74668925 15,7.0223626 L15,16 C15,16.5522847 14.5522847,17 14,17 L2,17 C1.44771525,17 1,16.5522847 1,16 L1,7.0223626 C1,6.74668925 1.11380211,6.48324378 1.31451665,6.29427429 L7.31451665,0.645371469 C7.69959914,0.282822543 8.30040086,0.282822543 8.68548335,0.645371469 Z M8,2.74691955 L3,7.45433857 L3,15 L6,15 L6,15 L6,12 C6,10.8954305 6.8954305,10 8,10 C9.1045695,10 10,10.8954305 10,12 L10,15 L13,15 L13,7.45433857 L8,2.74691955 Z" id="Combined-Shape" fill="#0D88D1" fill-rule="nonzero"></path>
            </g>
        </g>
    </g>
</svg>