<?xml version="1.0" encoding="UTF-8"?>
<svg width="71px" height="59px" viewBox="0 0 71 59" version="1.1" xmlns="http://www.w3.org/2000/svg" xmlns:xlink="http://www.w3.org/1999/xlink">
    <!-- Generator: Sketch 57.1 (83088) - https://sketch.com -->
    <title>Group 23@2x</title>
    <desc>Created with Sketch.</desc>
    <defs>
        <rect id="path-1" x="0" y="0" width="71" height="59"></rect>
    </defs>
    <g id="Page-1" stroke="none" stroke-width="1" fill="none" fill-rule="evenodd">
        <g id="Home-Copy" transform="translate(-58.000000, -38.000000)">
            <g id="Group-23" transform="translate(58.000000, 38.000000)">
                <mask id="mask-2" fill="white">
                    <use xlink:href="#path-1"></use>
                </mask>
                <g id="Rectangle"></g>
                <g id="Group-56-Copy-4" mask="url(#mask-2)">
                    <g transform="translate(0.000000, -6.000000)" id="Group-55">
                        <g>
                            <g id="Group-Copy-3" transform="translate(0.363636, 0.076923)" fill-rule="nonzero">
                                <path d="M17,5.92307692 L34,64.9230769 L0,64.9230769 L17,5.92307692 Z M17,21.0925692 L5.58104014,60.7230769 L28.4189599,60.7230769 L17,21.0925692 Z" id="Triangle-Copy" fill="#0D88D1"></path>
                                <path d="M53.7646046,64.9833454 C63.253581,64.9833454 70.9469607,57.2998784 70.9469607,47.8205513 C70.9469607,38.3412243 63.253581,30.6577573 53.7646046,30.6577573 C44.2756282,30.6577573 36.5822485,38.3412243 36.5822485,47.8205513 C36.5822485,57.2998784 44.2756282,64.9833454 53.7646046,64.9833454 Z M53.7646046,60.9833454 C46.4836136,60.9833454 40.5822485,55.0895841 40.5822485,47.8205513 C40.5822485,40.5515186 46.4836136,34.6577573 53.7646046,34.6577573 C61.0455957,34.6577573 66.9469607,40.5515186 66.9469607,47.8205513 C66.9469607,55.0895841 61.0455957,60.9833454 53.7646046,60.9833454 Z" id="Oval-Copy-4" fill-opacity="0.08" fill="#979797"></path>
                                <path d="M53.6527079,41.5907754 C63.1416843,41.5907754 70.835064,33.9073085 70.835064,24.4279814 C70.835064,14.9486543 63.1416843,7.26518738 53.6527079,7.26518738 C44.1637315,7.26518738 36.4703518,14.9486543 36.4703518,24.4279814 C36.4703518,33.9073085 44.1637315,41.5907754 53.6527079,41.5907754 Z M53.6527079,37.5907754 C46.3717168,37.5907754 40.4703518,31.6970142 40.4703518,24.4279814 C40.4703518,17.1589487 46.3717168,11.2651874 53.6527079,11.2651874 C60.9336989,11.2651874 66.835064,17.1589487 66.835064,24.4279814 C66.835064,31.6970142 60.9336989,37.5907754 53.6527079,37.5907754 Z" id="Oval-Copy-5" fill-opacity="0.08" fill="#979797"></path>
                                <path d="M50.9955331,64.802874 C51.0207738,64.8009018 52.0886297,64.9691558 53.1767158,65.009108 C54.2663973,65.0491188 55.3763089,64.9608279 55.3983606,64.9587017 C64.1663818,64.1288215 70.9405098,56.7520675 70.9405098,47.8732154 C70.9405098,38.3938883 63.2471301,30.7104214 53.7581537,30.7104214 C44.8248568,30.7104214 37.4016156,37.5471478 36.6397571,46.3833467 L40.6249717,46.7269525 C41.2087852,39.955757 46.9041121,34.7104214 53.7581537,34.7104214 C61.0391448,34.7104214 66.9405098,40.6041827 66.9405098,47.8732154 C66.9405098,54.7543215 61.6312206,60.4618421 54.8030418,60.9953653 L50.9955331,64.802874 Z" id="Oval-Copy-7" fill="#0D88D1" transform="translate(53.790133, 47.864960) rotate(45.000000) translate(-53.790133, -47.864960) "></path>
                                <path d="M51.0260504,41.4674495 C51.0433181,41.4660364 52.0760957,41.6500999 53.1214971,41.6987566 C54.1668997,41.7474133 55.2249262,41.660663 55.2421636,41.6589911 C64.0692097,40.8835022 70.9011221,33.478843 70.9011221,24.5628497 C70.9011221,15.0835226 63.2077425,7.40005563 53.718766,7.40005563 C44.8235962,7.40005563 37.4715735,14.2093946 36.6792706,23.0336079 L40.6632439,23.3913183 C41.2713815,16.6182313 46.9054301,11.4000556 53.718766,11.4000556 C60.9997571,11.4000556 66.9011221,17.2938169 66.9011221,24.5628497 C66.9011221,31.4258592 61.6189007,37.1240918 54.8123992,37.6811007 L51.0260504,41.4674495 Z" id="Oval-Copy-6" fill="#0D88D1" transform="translate(53.790196, 24.556806) rotate(-135.000000) translate(-53.790196, -24.556806) "></path>
                            </g>
                        </g>
                    </g>
                </g>
            </g>
        </g>
    </g>
</svg>