<svg width="72" height="60" viewBox="0 0 72 60" fill="none" xmlns="http://www.w3.org/2000/svg">
<g id="logo-dark">
<mask id="mask0" mask-type="alpha" maskUnits="userSpaceOnUse" x="0" y="0" width="72" height="60">
<g id="mask 2">
<path id="Vector" d="M72 0H0V60H72V0Z" fill="white"/>
</g>
</mask>
<g mask="url(#mask0)">
<g id="Group 103">
<g id="Group">
<path id="Triangle Copy" d="M17.3636 0L34.3636 59H0.363647L17.3636 0ZM17.3636 15.1695L5.94469 54.8H28.7826L17.3636 15.1695Z" fill="#0D88D1"/>
<path id="Oval Copy 4" d="M54.1283 59.0603C63.6173 59.0603 71.3106 51.3768 71.3106 41.8975C71.3106 32.4181 63.6173 24.7347 54.1283 24.7347C44.6393 24.7347 36.9459 32.4181 36.9459 41.8975C36.9459 51.3768 44.6393 59.0603 54.1283 59.0603ZM54.1283 55.0603C46.8473 55.0603 40.9459 49.1665 40.9459 41.8975C40.9459 34.6284 46.8473 28.7347 54.1283 28.7347C61.4093 28.7347 67.3106 34.6284 67.3106 41.8975C67.3106 49.1665 61.4093 55.0603 54.1283 55.0603Z" fill="#979797" fill-opacity="0.08"/>
<path id="Oval Copy 5" d="M54.0163 35.6677C63.5053 35.6677 71.1987 27.9842 71.1987 18.5049C71.1987 9.02558 63.5053 1.34212 54.0163 1.34212C44.5274 1.34212 36.834 9.02558 36.834 18.5049C36.834 27.9842 44.5274 35.6677 54.0163 35.6677ZM54.0163 31.6677C46.7353 31.6677 40.834 25.7739 40.834 18.5049C40.834 11.2359 46.7353 5.34212 54.0163 5.34212C61.2973 5.34212 67.1987 11.2359 67.1987 18.5049C67.1987 25.7739 61.2973 31.6677 54.0163 31.6677Z" fill="#979797" fill-opacity="0.08"/>
</g>
</g>
<g id="half-circle-bottom">
<g id="Oval Copy 7">
<path id="Vector_2" d="M40.2008 51.9427C40.22 51.9592 40.8562 52.8332 41.5973 53.6309C42.3395 54.4297 43.1868 55.1521 43.2039 55.1662C49.9906 60.7793 59.9968 60.3532 66.2751 54.0749C72.978 47.372 72.971 36.4989 66.2613 29.7892C59.9445 23.4724 49.8612 23.0577 43.0743 28.7671L45.6493 31.828C50.8501 27.4529 58.5863 27.7711 63.4328 32.6176C68.5813 37.766 68.5867 46.1065 63.4467 51.2464C58.581 56.1121 50.7909 56.3937 45.5854 51.9427L40.2008 51.9427Z" fill="#0D88D1"/>
</g>
</g>
<g id="half-circle-top">
<g id="Oval Copy 6">
<path id="Vector_3" d="M68.066 8.63065C68.0528 8.61944 67.4526 7.75901 66.7478 6.98539C66.043 6.21177 65.2335 5.52498 65.2202 5.51397C58.4301 -0.179341 48.3634 0.225652 42.0588 6.53021C35.3559 13.2331 35.3629 24.1062 42.0726 30.8159C48.3346 37.0779 58.2874 37.286 65.0854 31.6852C65.0958 31.6768 64.2712 30.6284 62.6118 28.54C57.3925 32.8993 49.7188 32.8052 44.9011 27.9875C39.7526 22.839 39.7473 14.4986 44.8872 9.35864C49.7401 4.50576 57.5045 4.21159 62.7113 8.63065H68.066Z" fill="#0D88D1"/>
</g>
</g>
</g>
</g>
</svg>
