<?xml version="1.0" encoding="UTF-8"?>
<svg width="17px" height="17px" viewBox="0 0 17 17" version="1.1" xmlns="http://www.w3.org/2000/svg" xmlns:xlink="http://www.w3.org/1999/xlink">
    <!-- Generator: Sketch 57.1 (83088) - https://sketch.com -->
    <title>Resume</title>
    <desc>Created with Sketch.</desc>
    <g id="Page-1" stroke="none" stroke-width="1" fill="none" fill-rule="evenodd">
        <g id="Artboard-Copy-20" transform="translate(-213.000000, -7.000000)">
            <g id="Group-3" transform="translate(27.000000, 7.000000)">
                <g id="Resume" transform="translate(186.000000, 0.000000)">
                    <rect id="Rectangle" fill-opacity="0.01" fill="#FFFFFF" x="0" y="0" width="17" height="17"></rect>
                    <path d="M10.965347,0 C11.4697345,0 11.9554969,0.196352544 12.3253251,0.549723838 L14.3599781,2.4938374 C14.7680721,2.88377173 15,3.43127756 15,4.00471962 L15,14.9393939 C15,16.0774352 14.1045695,17 13,17 L4,17 C2.8954305,17 2,16.0774352 2,14.9393939 L2,2.06060606 C2,0.922564758 2.8954305,0 4,0 L10.965347,0 Z M10.965347,2.06060606 L4,2.06060606 L4,14.9393939 L13,14.9393939 L13,4.00471962 L10.965347,2.06060606 Z M10.5,10.3030303 C11.0522847,10.3030303 11.5,10.7643127 11.5,11.3333333 C11.5,11.902354 11.0522847,12.3636364 10.5,12.3636364 L10.5,12.3636364 L6.5,12.3636364 C5.94771525,12.3636364 5.5,11.902354 5.5,11.3333333 C5.5,10.7643127 5.94771525,10.3030303 6.5,10.3030303 L6.5,10.3030303 Z M6.5,6.18181818 L10.5,6.18181818 C11.0522847,6.18181818 11.5,6.64310056 11.5,7.21212121 C11.5,7.74320715 11.1099903,8.18044109 10.608961,8.23637856 L10.5,8.24242424 L6.5,8.24242424 C5.94771525,8.24242424 5.5,7.78114186 5.5,7.21212121 C5.5,6.68103527 5.89000973,6.24380134 6.39103898,6.18786386 L6.5,6.18181818 L10.5,6.18181818 Z" id="Combined-Shape" fill="#868D95" fill-rule="nonzero"></path>
                </g>
            </g>
        </g>
    </g>
</svg>