<?xml version="1.0" encoding="UTF-8"?>
<svg width="72px" height="59px" viewBox="0 0 72 59" version="1.1" xmlns="http://www.w3.org/2000/svg" xmlns:xlink="http://www.w3.org/1999/xlink">
    <!-- Generator: Sketch 51.3 (57544) - http://www.bohemiancoding.com/sketch -->
    <title>Group Copy</title>
    <desc>Created with Sketch.</desc>
    <defs></defs>
    <g id="Website" stroke="none" stroke-width="1" fill="none" fill-rule="evenodd">
        <g id="Group-56-Copy" transform="translate(-14.000000, -21.000000)">
            <g id="Group-55">
                <g id="Group-Copy" transform="translate(16.363636, 17.076923)">
                    <polygon id="Triangle-Copy" stroke="#FFFFFF" stroke-width="4.2" stroke-linejoin="round" points="15.1823561 7.13017759 30.3647122 60.2721605 0 60.2721605"></polygon>
                    <ellipse id="Oval-Copy-4" stroke-opacity="0.08" stroke="#979797" stroke-width="4" cx="51.7646046" cy="44.8205513" rx="15.1823561" ry="15.162794"></ellipse>
                    <ellipse id="Oval-Copy-5" stroke-opacity="0.08" stroke="#979797" stroke-width="4" cx="51.6527079" cy="21.4279814" rx="15.1823561" ry="15.162794"></ellipse>
                    <path d="M52.9716678,59.9946022 C60.7953707,59.3832932 66.9533396,52.8491202 66.9533396,44.8785297 C66.9533396,36.5043498 60.1559672,29.7157356 51.7709835,29.7157356 C43.8306452,29.7157356 37.3140046,35.8034558 36.6451942,43.5604639" id="Oval-Copy-7" stroke="#FFFFFF" stroke-width="4" stroke-linecap="round" transform="translate(51.799267, 44.855169) rotate(45.000000) translate(-51.799267, -44.855169) "></path>
                    <path d="M52.9593367,36.7135158 C60.7563694,36.075447 66.8849352,29.5534671 66.8849352,21.6019283 C66.8849352,13.2277484 60.0875629,6.43913425 51.7025791,6.43913425 C43.7811792,6.43913425 37.3492002,12.5207231 36.6550704,20.2515417" id="Oval-Copy-6" stroke="#FFFFFF" stroke-width="4" stroke-linecap="round" transform="translate(51.770003, 21.576325) rotate(-135.000000) translate(-51.770003, -21.576325) "></path>
                </g>
            </g>
        </g>
    </g>
</svg>