<?xml version="1.0" encoding="UTF-8"?>
<svg width="17px" height="17px" viewBox="0 0 17 17" version="1.1" xmlns="http://www.w3.org/2000/svg" xmlns:xlink="http://www.w3.org/1999/xlink">
    <!-- Generator: Sketch 57.1 (83088) - https://sketch.com -->
    <title>About-active</title>
    <desc>Created with Sketch.</desc>
    <g id="Page-1" stroke="none" stroke-width="1" fill="none" fill-rule="evenodd">
        <g id="Artboard-Copy-20" transform="translate(-94.000000, -7.000000)" fill="#0D88D1">
            <g id="About-active" transform="translate(94.000000, 7.000000)">
                <path d="M8.5,0 C13.1944204,0 17,3.80557963 17,8.5 C17,13.1944204 13.1944204,17 8.5,17 C3.80557963,17 0,13.1944204 0,8.5 C0,3.80557963 3.80557963,0 8.5,0 Z M8.5,2 C4.91014913,2 2,4.91014913 2,8.5 C2,12.0898509 4.91014913,15 8.5,15 C12.0898509,15 15,12.0898509 15,8.5 C15,4.91014913 12.0898509,2 8.5,2 Z M11.1977982,9.8 C12.0205395,9.8 12.491273,10.7381436 11.9994942,11.397732 C11.1496771,12.5375321 9.95207122,13.1263051 8.5,13.1263051 C7.04792878,13.1263051 5.85032288,12.5375321 5.00050582,11.397732 C4.50872704,10.7381436 4.97946053,9.8 5.80220183,9.8 L5.80220183,9.8 Z M6,5.3 C6.82842712,5.3 7.5,5.97157288 7.5,6.8 C7.5,7.62842712 6.82842712,8.3 6,8.3 C5.17157288,8.3 4.5,7.62842712 4.5,6.8 C4.5,5.97157288 5.17157288,5.3 6,5.3 Z M11,5.3 C11.8284271,5.3 12.5,5.97157288 12.5,6.8 C12.5,7.62842712 11.8284271,8.3 11,8.3 C10.1715729,8.3 9.5,7.62842712 9.5,6.8 C9.5,5.97157288 10.1715729,5.3 11,5.3 Z" id="Combined-Shape"></path>
            </g>
        </g>
    </g>
</svg>