<?xml version="1.0" encoding="UTF-8"?>
<svg width="17px" height="17px" viewBox="0 0 17 17" version="1.1" xmlns="http://www.w3.org/2000/svg" xmlns:xlink="http://www.w3.org/1999/xlink">
    <!-- Generator: Sketch 57.1 (83088) - https://sketch.com -->
    <title>About</title>
    <desc>Created with Sketch.</desc>
    <g id="Page-1" stroke="none" stroke-width="1" fill="none" fill-rule="evenodd">
        <g id="Artboard-Copy-20" transform="translate(-124.000000, -7.000000)" fill="#868D95">
            <g id="Group-3" transform="translate(27.000000, 7.000000)">
                <g id="About" transform="translate(97.000000, 0.000000)">
                    <path d="M8.5,0 C13.1944204,0 17,3.80557963 17,8.5 C17,13.1944204 13.1944204,17 8.5,17 C3.80557963,17 0,13.1944204 0,8.5 C0,3.80557963 3.80557963,0 8.5,0 Z M8.5,2 C4.91014913,2 2,4.91014913 2,8.5 C2,12.0898509 4.91014913,15 8.5,15 C12.0898509,15 15,12.0898509 15,8.5 C15,4.91014913 12.0898509,2 8.5,2 Z M10.1246441,10.4844701 C10.5290691,10.10836 11.1618179,10.1313138 11.537928,10.5357388 C11.9140381,10.9401638 11.8910844,11.5729126 11.4866594,11.9490227 C10.6499163,12.7271831 9.63817321,13.1263071 8.49999794,13.1263071 C7.36182445,13.1263071 6.35009191,12.7271941 5.51337064,11.9490509 C5.10894634,11.57294 5.08599381,10.9401912 5.46210474,10.5357669 C5.83821567,10.1313426 6.47096449,10.10839 6.87538879,10.484501 C7.34266764,10.919066 7.86801392,11.1263071 8.49999794,11.1263071 C9.13198021,11.1263071 9.6573396,10.9190573 10.1246441,10.4844701 Z M6,5.3 C6.82842712,5.3 7.5,5.97157288 7.5,6.8 C7.5,7.62842712 6.82842712,8.3 6,8.3 C5.17157288,8.3 4.5,7.62842712 4.5,6.8 C4.5,5.97157288 5.17157288,5.3 6,5.3 Z M11,5.3 C11.8284271,5.3 12.5,5.97157288 12.5,6.8 C12.5,7.62842712 11.8284271,8.3 11,8.3 C10.1715729,8.3 9.5,7.62842712 9.5,6.8 C9.5,5.97157288 10.1715729,5.3 11,5.3 Z" id="Combined-Shape"></path>
                </g>
            </g>
        </g>
    </g>
</svg>