<?xml version="1.0" encoding="UTF-8"?>
<svg width="17px" height="17px" viewBox="0 0 17 17" version="1.1" xmlns="http://www.w3.org/2000/svg" xmlns:xlink="http://www.w3.org/1999/xlink">
    <!-- Generator: Sketch 57.1 (83088) - https://sketch.com -->
    <title>Home</title>
    <desc>Created with Sketch.</desc>
    <g id="Page-1" stroke="none" stroke-width="1" fill="none" fill-rule="evenodd">
        <g id="Artboard-Copy-20" transform="translate(-33.000000, -7.000000)">
            <g id="Group-3" transform="translate(27.000000, 7.000000)">
                <g id="Home" transform="translate(6.000000, 0.000000)">
                    <rect id="Rectangle" fill-opacity="0.01" fill="#FFFFFF" x="0.5" y="0" width="16" height="17"></rect>
                    <path d="M1.81451665,6.29427429 L7.81451665,0.645371469 C8.19959914,0.282822543 8.80040086,0.282822543 9.18548335,0.645371469 L15.1854833,6.29427429 C15.3861979,6.48324378 15.5,6.74668925 15.5,7.0223626 L15.5,16 C15.5,16.5522847 15.0522847,17 14.5,17 L10.375,17 C9.82271525,17 9.375,16.5522847 9.375,16 L9.375,12.825 C9.375,12.3417508 8.98324916,11.95 8.5,11.95 C8.01675084,11.95 7.625,12.3417508 7.625,12.825 L7.625,16 C7.625,16.5522847 7.17728475,17 6.625,17 L2.5,17 C1.94771525,17 1.5,16.5522847 1.5,16 L1.5,7.0223626 C1.5,6.74668925 1.61380211,6.48324378 1.81451665,6.29427429 Z M3.5,7.45433857 L3.5,15 L5.625,15 L5.625,12.825 C5.625,11.2371813 6.91218134,9.95 8.5,9.95 C10.0878187,9.95 11.375,11.2371813 11.375,12.825 L11.375,15 L13.5,15 L13.5,7.45433857 L8.5,2.74691955 L3.5,7.45433857 Z" id="Line" fill="#868D95" fill-rule="nonzero"></path>
                </g>
            </g>
        </g>
    </g>
</svg>