<?xml version="1.0" encoding="UTF-8"?>
<svg width="1440px" height="586px" viewBox="0 0 1440 586" version="1.1" xmlns="http://www.w3.org/2000/svg" xmlns:xlink="http://www.w3.org/1999/xlink">
    <!-- Generator: Sketch 57.1 (83088) - https://sketch.com -->
    <title>Group 5 Copy@2x</title>
    <desc>Created with Sketch.</desc>
    <defs>
        <rect id="path-1" x="0" y="0" width="1440" height="586"></rect>
        <path d="M28.7760062,45.3254056 C33.7760062,39.742735 36.2760062,32.6551381 36.2760062,24.0626149 C36.2760062,20.1092274 36.2760062,15.1632274 34.2124047,10.5444794 C32.8366704,7.46531409 30.3578709,4.1922895 26.7760062,0.725405634 C26.4071193,3.63126072 25.7236317,7.29580836 24.7255435,11.7190485 C23.2284111,18.3539088 21.2760062,20.2831882 21.2760062,25.0998242 C21.2760062,33.6923474 23.7760062,40.4342079 28.7760062,45.3254056 Z" id="path-3"></path>
        <path d="M29.3920316,46.8023202 C30.5331361,38.7740612 29.4928578,31.4118834 26.2711968,24.7157867 C24.2523143,20.5196183 21.6163434,19.4829025 18.3632839,16.8056392 C17.0712455,15.7422935 14.9141615,13.6168315 11.8920316,10.4292532 C10.7509272,18.4575121 11.7912055,25.81969 15.0128665,32.5157867 C18.2345276,39.2118834 23.0275826,43.9740612 29.3920316,46.8023202 Z" id="path-4"></path>
        <path d="M35.5693479,48.7876541 C40.5717028,42.4055301 43.3518843,35.509558 43.9098924,28.0997376 C44.2233728,23.9370132 43.2021862,21.0941293 42.0463325,17.492625 C41.4452569,15.6197442 40.7853002,12.4550104 40.0664622,7.99842361 C34.086757,14.7400345 30.8179004,21.8157502 30.2598924,29.2255706 C29.7018843,36.635391 31.4717028,43.1560855 35.5693479,48.7876541 Z" id="path-5"></path>
        <path d="M32.9778589,52.5122022 C34.2581781,43.5044959 33.0909858,35.2441325 29.4762822,27.7311121 C27.2110962,23.0230113 24.2535368,21.8598162 20.6036041,18.8559268 C19.1539371,17.6628529 16.7336888,15.2780846 13.3428593,11.7016219 C12.0625401,20.7093282 13.2297323,28.9696916 16.8444359,36.482712 C20.4591395,43.9957324 25.8369472,49.3388958 32.9778589,52.5122022 Z" id="path-6"></path>
        <path d="M32.2866784,50.8551042 C37.8966783,44.5913479 40.7016782,36.6390643 40.7016782,26.9982535 C40.7016782,22.5625527 40.7016782,17.0131408 38.3863174,11.8309057 C36.8427435,8.37608226 34.0615305,4.70374873 30.0426784,0.813905106 C30.3767873,4.07427445 29.9839143,8.18589682 28.8640593,13.1487722 C27.1842767,20.5930853 23.8716786,22.7577368 23.8716786,28.1620023 C23.8716786,37.8028131 26.6766785,45.3671804 32.2866784,50.8551042 Z" id="path-7"></path>
        <path d="M39.9088076,54.7397469 C45.5214497,47.5790039 48.6408133,39.8417233 49.2668983,31.527905 C49.6186234,26.8573283 48.472852,23.6676127 47.1759842,19.6267249 C46.5015774,17.5253526 45.7611059,13.9745214 44.9545698,8.97423112 C38.2453407,16.5383185 34.5776836,24.4772713 33.9515986,32.7910896 C33.3255136,41.1049079 35.3112499,48.421127 39.9088076,54.7397469 Z" id="path-8"></path>
    </defs>
    <g id="Page-1" stroke="none" stroke-width="1" fill="none" fill-rule="evenodd">
        <g id="Group-5-Copy">
            <mask id="mask-2" fill="white">
                <use xlink:href="#path-1"></use>
            </mask>
            <use id="Rectangle" fill="#ECF3FA" xlink:href="#path-1"></use>
            <g id="Group-3" opacity="0.9" mask="url(#mask-2)">
                <g transform="translate(1306.000000, 404.000000)" id="Group-2">
                    <g>
                        <path d="M34.1294383,81.3954953 C48.7649842,81.3954953 59.1162071,78.8568542 59.1162071,77.2 C59.1162071,75.5431458 48.5409904,74.2 33.9054446,74.2 C19.2698987,74.2 6.40544457,75.5431458 6.40544457,77.2 C6.40544457,78.8568542 19.4938925,81.3954953 34.1294383,81.3954953 Z" id="Oval" fill-opacity="0.1" fill="#313D4B"></path>
                        <g id="Group" transform="translate(0.129438, 0.395495)">
                            <path d="M12.0227113,44.1126613 C19.2202498,37.6356858 45.7090134,38.8956585 48.3619036,47.2807943 C51.7184868,50.67644 45.4189404,74.4463977 38.7105972,78.4364284 C36.6277965,80.7867833 30.7721382,80.7867833 22.9443649,80.2612168 C10.7506453,74.2307513 7.62089861,48.073798 12.0227113,44.1126613 Z" id="Rectangle" fill="#FFFFFF"></path>
                            <g id="Group-4">
                                <path d="M29.6537066,48.6687922 C36.557266,48.6687922 41.6620378,46.219521 41.6620378,44.8940376 C41.6620378,44.1237088 40.5377332,43.526463 37.4031579,43.161303 C37.2760062,43.1464896 36.8865065,43.1753486 36.7501154,43.161303 C34.4635115,42.9258282 31.1976927,43.3764712 28.469022,43.3764712 C25.7704425,43.3764712 22.1656982,42.9456649 19.9937731,43.2564709 C16.6094365,43.7407749 15.2760062,44.5180495 15.2760062,45.3254056 C15.2760062,46.650889 22.7501473,48.6687922 29.6537066,48.6687922 Z" id="Oval" fill="#313D4B"></path>
                                <g id="Oval" transform="translate(28.776006, 23.025406) scale(-1, 1) translate(-28.776006, -23.025406) ">
                                    <use fill="#0D88D1" xlink:href="#path-3"></use>
                                    <use fill-opacity="0.2" fill="#000000" xlink:href="#path-3"></use>
                                </g>
                                <path d="M31.1814508,46.3057904 C28.6579017,39.0148617 24.6060868,33.4364007 19.0260062,29.5704075 C16.2176248,27.6247037 13.2897541,27.4981746 10.2423942,26.7908201 C8.21082099,26.3192505 5.0868768,25.8242406 0.870561675,25.3057904 C3.39411078,32.5967191 7.44592563,38.17518 13.0260062,42.0411733 C18.6060868,45.9071665 24.6579017,47.3287056 31.1814508,46.3057904 Z" id="Oval-Copy-3" fill="#0D88D1"></path>
                                <path d="M30.8705617,23.6045047 C31.7870367,21.9680917 32.2452742,19.9939404 32.2452742,17.6820508 C32.2452742,15.3701611 31.7870367,13.3443124 30.8705617,11.6045047 C31.150951,13.3443124 31.2911457,15.3701611 31.2911457,17.6820508 C31.2911457,19.9939404 31.150951,21.9680917 30.8705617,23.6045047 Z" id="Oval-Copy" fill-opacity="0.2" fill="#C4E9FF" transform="translate(31.557918, 17.604505) scale(-1, 1) rotate(-340.000000) translate(-31.557918, -17.604505) "></path>
                                <g id="Oval-Copy-4">
                                    <use fill="#0D88D1" xlink:href="#path-4"></use>
                                    <use fill-opacity="0.1" fill="#000000" xlink:href="#path-4"></use>
                                </g>
                                <path d="M20.5496255,34.80232 C19.1969258,33.3618912 17.9726179,31.5027675 16.8767018,29.2249488 C15.7807858,26.9471301 14.6874288,24.6818982 13.5966309,22.4292532 C13.8751268,25.160235 14.5623328,27.6646353 15.6582488,29.942454 C16.7541649,32.2202727 18.3846238,33.840228 20.5496255,34.80232 Z" id="Oval-Copy-7" fill-opacity="0.1" fill="#FFFFFF"></path>
                                <g id="Oval-Copy-5" transform="translate(37.063401, 28.393039) scale(-1, 1) rotate(-30.000000) translate(-37.063401, -28.393039) ">
                                    <use fill="#0D88D1" xlink:href="#path-5"></use>
                                    <use fill-opacity="0.1" fill="#010000" xlink:href="#path-5"></use>
                                </g>
                                <path d="M44.7594339,31.8595843 C43.0935942,30.5064985 41.5493955,28.8012075 40.1268378,26.7437114 C38.70428,24.6862154 37.2855213,22.6398131 35.8705617,20.6045047 C36.37339,22.9897371 37.336083,25.2111013 38.7586408,27.2685974 C40.1811986,29.3260935 42.1814629,30.8564224 44.7594339,31.8595843 Z" id="Oval-Copy-9" fill-opacity="0.07" fill="#FFFFFF" transform="translate(40.314998, 26.232045) scale(-1, -1) rotate(64.000000) translate(-40.314998, -26.232045) "></path>
                                <path d="M40.0524316,54.2050217 C45.1047865,48.3740997 47.909968,42.0758946 48.4679761,35.3104064 C48.783991,31.4789295 47.3061628,28.5084252 46.1129524,25.1988934 C45.5038065,23.5093442 44.4939959,20.9280536 43.0835205,17.4550217 C38.0311656,23.2859437 35.2259841,29.5841487 34.6679761,36.3496369 C34.109968,43.1151251 35.9047865,49.06692 40.0524316,54.2050217 Z" id="Oval-Copy-6" fill="#0D88D1" transform="translate(41.539996, 35.830022) scale(-1, 1) rotate(-60.000000) translate(-41.539996, -35.830022) "></path>
                                <path d="M48.8168474,41.5203873 C47.2600297,40.373348 45.857225,38.8858541 44.6084334,37.0579056 C43.3596419,35.2299572 42.1136846,33.4121569 40.8705617,31.6045047 C41.1636991,33.8100925 41.9346636,35.8268606 43.1834552,37.654809 C44.4322467,39.4827574 46.3100441,40.7712835 48.8168474,41.5203873 Z" id="Oval-Copy-10" fill-opacity="0.07" fill="#000000" transform="translate(44.843705, 36.562446) scale(-1, -1) rotate(89.000000) translate(-44.843705, -36.562446) "></path>
                            </g>
                        </g>
                    </g>
                </g>
            </g>
            <g id="Group-3" mask="url(#mask-2)">
                <g transform="translate(51.000000, 462.000000)" id="Group-2">
                    <g>
                        <path d="M33.8052292,91.325744 C50.2263113,91.325744 61.8403832,88.4773888 61.8403832,86.6183984 C61.8403832,84.7594079 49.9749903,83.2523984 33.5539082,83.2523984 C17.132826,83.2523984 2.69890875,84.7594079 2.69890875,86.6183984 C2.69890875,88.4773888 17.384147,91.325744 33.8052292,91.325744 Z" id="Oval" fill-opacity="0.1" fill="#313D4B"></path>
                        <g id="Group" transform="translate(0.145230, 0.443746)">
                            <path d="M13.4894819,49.4944051 C21.5651199,42.2272387 51.2855121,43.640928 54.2620548,53.0490502 C58.0281411,56.8589646 50.9600501,83.5288566 45.6772892,88.0056711 C43.3403869,90.6427691 36.7703383,90.6427691 27.9875769,90.0530835 C10.9402238,83.2869014 8.55064808,53.9388003 13.4894819,49.4944051 Z" id="Rectangle" fill="#FFFFFF"></path>
                            <g id="Group-4">
                                <path d="M33.2714582,54.6063838 C41.0172517,54.6063838 46.7448055,51.8583016 46.7448055,50.3711092 C46.7448055,49.5068003 45.4833358,48.8366905 41.9663424,48.4269811 C41.823669,48.4103604 41.3866596,48.4427402 41.2336287,48.4269811 C38.6680592,48.1627783 35.0038106,48.6683998 31.9422421,48.6683998 C28.914436,48.6683998 24.8699129,48.1850351 22.433013,48.5337594 C18.6357874,49.0771486 17.1396787,49.9492506 17.1396787,50.8551042 C17.1396787,52.3422965 25.5256648,54.6063838 33.2714582,54.6063838 Z" id="Oval" fill="#313D4B"></path>
                                <g id="Oval-Copy-4">
                                    <use fill="#0D88D1" xlink:href="#path-6"></use>
                                    <use fill-opacity="0.1" fill="#000000" xlink:href="#path-6"></use>
                                </g>
                                <path d="M23.0566794,39.0482023 C21.5389503,37.4320413 20.1652769,35.3461045 18.9356591,32.7903919 C17.7060413,30.2346794 16.4792949,27.6930893 15.2554196,25.1656216 C15.567892,28.2297832 16.3389371,31.0397202 17.5685549,33.5954327 C18.7981726,36.1511453 20.6275475,37.9687351 23.0566794,39.0482023 Z" id="Oval-Copy-7" fill-opacity="0.2" fill="#C4E9FF"></path>
                                <g id="Oval">
                                    <use fill="#0D88D1" xlink:href="#path-7"></use>
                                    <use fill-opacity="0.2" fill="#000000" xlink:href="#path-7"></use>
                                </g>
                                <path d="M27.063725,37.3911044 C27.0347328,35.9304976 27.0202366,34.0761534 27.0202366,31.828072 C27.0202366,29.5799905 27.0347328,27.5447347 27.063725,25.7223046 C26.431694,27.5447347 26.1156785,29.5799905 26.1156785,31.828072 C26.1156785,34.0761534 26.431694,35.9304976 27.063725,37.3911044 Z" id="Oval-Copy" fill-opacity="0.2" fill="#C4E9FF"></path>
                                <path d="M34.9855872,51.9550958 C32.1541651,43.774674 27.6080289,37.5156409 21.3471786,33.1779966 C18.1961747,30.994917 14.9111038,30.8529513 11.4919661,30.0592996 C9.21254097,29.5301985 5.70747566,28.9747974 0.976770181,28.3930963 C3.80819222,36.5735181 8.35432841,42.8325512 14.6151787,47.1701956 C20.8760291,51.5078399 27.6661652,53.1028067 34.9855872,51.9550958 Z" id="Oval-Copy-3" fill="#0D88D1"></path>
                                <path d="M22.0694372,47.6511226 C19.8630738,46.4400889 17.5917346,44.9927811 15.2554196,43.3091992 C12.9191047,41.6256173 10.7409685,39.750414 8.721011,37.6835891 C10.1540369,40.7568943 12.0387074,43.1353379 14.3750223,44.8189198 C16.7113373,46.5025016 19.2761423,47.4465692 22.0694372,47.6511226 Z" id="Oval-Copy-8" fill-opacity="0.1" fill="#000000"></path>
                                <g id="Oval-Copy-5" transform="translate(41.585135, 31.856989) scale(-1, 1) rotate(-30.000000) translate(-41.585135, -31.856989) ">
                                    <use fill="#0D88D1" xlink:href="#path-8"></use>
                                    <use fill-opacity="0.1" fill="#010000" xlink:href="#path-8"></use>
                                </g>
                                <path d="M44.9388274,60.8180332 C50.6075696,54.2757389 53.7549831,47.2091529 54.3810682,39.6182753 C54.7356368,35.3193583 53.0775136,31.9864525 51.7387316,28.2731579 C51.05527,26.3774837 49.9222625,23.4812757 48.3397091,19.584534 C42.670967,26.1268283 39.5235535,33.1934143 38.8974684,40.7842919 C38.2713834,48.3751695 40.2851697,55.0530833 44.9388274,60.8180332 Z" id="Oval-Copy-6" fill="#0D88D1" transform="translate(46.607875, 40.201284) scale(-1, 1) rotate(-60.000000) translate(-46.607875, -40.201284) "></path>
                                <path d="M43.2167064,37.0746116 C41.3476343,35.5564492 39.6150434,33.6431128 38.0189336,31.3346023 C36.4228238,29.0260917 34.8309766,26.7300285 33.2433919,24.4464124 C33.8075653,27.1226432 34.8877069,29.6150138 36.4838166,31.9235243 C38.0799264,34.2320349 40.324223,35.9490639 43.2167064,37.0746116 Z" id="Oval-Copy-9" fill-opacity="0.07" fill="#FFFFFF" transform="translate(38.230049, 30.760512) rotate(64.000000) translate(-38.230049, -30.760512) "></path>
                                <path d="M48.1203623,44.3834162 C46.3736128,43.096438 44.799666,41.4274699 43.3985219,39.3765118 C41.9973778,37.3255537 40.5994138,35.2859818 39.2046298,33.2577961 C39.5335301,35.7324655 40.3985522,37.9952793 41.7996963,40.0462374 C43.2008404,42.0971955 45.3077291,43.5429217 48.1203623,44.3834162 Z" id="Oval-Copy-10" fill-opacity="0.07" fill="#000000" transform="translate(43.662496, 38.820606) rotate(94.000000) translate(-43.662496, -38.820606) "></path>
                            </g>
                        </g>
                    </g>
                </g>
            </g>
        </g>
    </g>
</svg>