<?xml version="1.0" encoding="utf-8"?>
<!-- Generator: Adobe Illustrator 16.0.0, SVG Export Plug-In . SVG Version: 6.00 Build 0)  -->
<!DOCTYPE svg PUBLIC "-//W3C//DTD SVG 1.1//EN" "http://www.w3.org/Graphics/SVG/1.1/DTD/svg11.dtd">
<svg version="1.1" id="Capa_1" xmlns="http://www.w3.org/2000/svg" xmlns:xlink="http://www.w3.org/1999/xlink" x="0px" y="0px"
	 width="64px" height="64px" viewBox="0 0 64 64" enable-background="new 0 0 64 64" xml:space="preserve">
<g>
	<path fill="#FFFFFF" d="M7.286,52.479c1.86,1.025,3.96,1.567,6.073,1.567c4.593,0,8.823-2.496,11.039-6.515
		c0.086-0.155,0.152-0.316,0.231-0.473l4.017,1.342c0.014,0.006,0.029,0.004,0.043,0.008c0,0,0.001,0,0.002,0
		c0.062,0.019,0.123,0.041,0.187,0.053c0.105,0.02,0.212,0.03,0.322,0.03h0.001l0,0h0.001l0,0l0,0l0,0c0.001,0,0.002,0,0.003,0
		c0.066,0,0.132-0.005,0.199-0.011c0.042-0.006,0.081-0.02,0.122-0.027c0.048-0.01,0.095-0.018,0.141-0.031
		c0.086-0.023,0.166-0.055,0.246-0.091c0.036-0.017,0.074-0.03,0.109-0.049c0.014-0.007,0.029-0.013,0.043-0.019
		c0.019-0.012,0.035-0.027,0.054-0.039c0.073-0.045,0.145-0.093,0.21-0.147c0.003-0.003,0.008-0.005,0.011-0.009h0.001
		c0.033-0.029,0.06-0.063,0.09-0.094c0.048-0.05,0.1-0.096,0.142-0.148c0.01-0.014,0.017-0.028,0.026-0.041
		c0.008-0.01,0.018-0.018,0.025-0.028L45.7,26.605l0.708,3.451c-2.855,1.017-5.299,3.045-6.807,5.782
		c-3.354,6.082-1.135,13.758,4.946,17.111c1.86,1.025,3.96,1.566,6.073,1.566c4.593,0,8.822-2.496,11.039-6.515
		c3.354-6.082,1.134-13.758-4.947-17.112c-1.859-1.025-3.96-1.567-6.072-1.567c-0.269,0-0.537,0.01-0.804,0.027L47.41,17.526
		c-0.115-0.558-0.495-1.023-1.018-1.251c-0.521-0.228-1.123-0.187-1.609,0.11c-0.031,0.018-3.102,1.854-5.805,1.546
		c-0.955-0.11-1.83,0.577-1.94,1.537c-0.111,0.96,0.577,1.829,1.537,1.94c2.157,0.252,4.319-0.359,5.858-0.977l0.226,1.101
		L28.59,26.644l-0.243-2.06h1.548c1.079,0,1.953-0.874,1.953-1.953s-0.874-1.953-1.953-1.953h-7.452
		c-1.079,0-1.953,0.874-1.953,1.953s0.874,1.953,1.953,1.953h2.38l0.435,3.688l-3.844,3.495c-0.602-0.5-1.255-0.956-1.965-1.348
		c-1.86-1.025-3.96-1.567-6.072-1.567c-4.593,0-8.823,2.497-11.039,6.515C-1.015,41.449,1.205,49.125,7.286,52.479z M48.917,42.271
		c0.17,0.828,0.899,1.397,1.712,1.397c0.117,0,0.234-0.012,0.354-0.036c0.947-0.193,1.558-1.119,1.363-2.066l-1.795-8.738
		c0.03,0,0.061-0.006,0.09-0.006c1.523,0,3.039,0.392,4.383,1.132c4.391,2.422,5.994,7.965,3.572,12.356
		c-1.601,2.901-4.656,4.705-7.974,4.705c-1.522,0-3.039-0.393-4.382-1.133c-4.393-2.422-5.994-7.965-3.572-12.355
		c1.007-1.827,2.592-3.217,4.456-3.996L48.917,42.271z M5.404,37.059c1.601-2.902,4.656-4.707,7.975-4.707
		c1.523,0,3.038,0.392,4.382,1.132c0.365,0.201,0.702,0.431,1.028,0.672l-6.597,5.998c-0.459,0.418-0.663,1.048-0.535,1.656
		c0.128,0.607,0.568,1.102,1.158,1.299l8.457,2.826c-1.615,2.844-4.632,4.61-7.913,4.61c-1.523,0-3.039-0.392-4.382-1.132
		C4.585,46.992,2.982,41.449,5.404,37.059z M22.38,42.616l-5.625-1.88l4.387-3.989C22.196,38.498,22.643,40.568,22.38,42.616z
		 M41.736,26.135L30.41,42.027L29.022,30.18L41.736,26.135z M25.763,32.545l1.375,11.661l-1.394-0.466
		c0.604-3.278-0.13-6.654-1.98-9.379L25.763,32.545z"/>
</g>
</svg>
