<?xml version="1.0" encoding="UTF-8"?>
<svg width="98px" height="89px" viewBox="0 0 98 89" version="1.1" xmlns="http://www.w3.org/2000/svg" xmlns:xlink="http://www.w3.org/1999/xlink">
    <!-- Generator: Sketch 51.3 (57544) - http://www.bohemiancoding.com/sketch -->
    <title>Group 58</title>
    <desc>Created with Sketch.</desc>
    <defs></defs>
    <g id="Website" stroke="none" stroke-width="1" fill="none" fill-rule="evenodd">
        <g id="Group-58" transform="translate(-1.000000, -17.000000)">
            <g id="Group-57">
                <g id="Group-41-Copy-3">
                    <rect id="Rectangle-17" stroke="#00B990" stroke-width="4" fill="#FFFFFF" x="3" y="49" width="94" height="55" rx="4"></rect>
                    <path d="M73.1963599,72.4834064 L82.3799352,17.8307602 C82.5128715,17.0396391 82.274881,16.8095432 81.4777588,16.9680371 L29.8899006,27.2253856 C29.0609851,27.390201 28.1032782,28.3477583 27.9384251,29.1768663 L17.6810954,80.7648147 C17.5216668,81.5666409 17.7483699,81.8006612 18.5438117,81.6669983 L73.1963599,72.4834064 Z" id="Rectangle-17-Copy" stroke="#00C193" stroke-width="4" fill="#FFFFFF" transform="translate(49.999854, 49.287008) rotate(-315.000000) translate(-49.999854, -49.287008) "></path>
                    <path d="M23,28.0039437 C23,26.3449114 24.3348389,25 25.9995609,25 L74.0004391,25 C75.6570508,25 77,26.3436574 77,27.9939891 L77,62.7532288 L50,82 L23,61.7076824 L23,28.0039437 Z" id="Rectangle-18" fill="#B2ECDE"></path>
                    <path d="M73.1963599,72.4834064 L82.3799352,17.8307602 C82.5128715,17.0396391 82.274881,16.8095432 81.4777588,16.9680371 L29.8899006,27.2253856 C29.0609851,27.390201 28.1032782,28.3477583 27.9384251,29.1768663 L17.6810954,80.7648147 C17.5216668,81.5666409 17.7483699,81.8006612 18.5438117,81.6669983 L73.1963599,72.4834064 Z" id="Rectangle-17-Copy-2" stroke="#00B990" stroke-width="4" transform="translate(49.999854, 49.287008) rotate(-315.000000) translate(-49.999854, -49.287008) "></path>
                    <path d="M7.02844702,102.93984 C7.44454836,103.252155 7.86538114,103.577048 8.27720408,103.901769 C8.32004693,103.935551 8.36151396,103.968317 8.40153034,104 L90.5370534,104 C91.0355614,103.603761 91.6952876,103.169926 92.5235842,102.744502 L51.8871865,75.6244406 C51.1773016,75.1506751 49.791811,75.1410778 49.0762245,75.6062521 L7.02844706,102.93984 Z" id="Rectangle-17-Copy-3" stroke="#00B990" stroke-width="4" fill="#FFFFFF"></path>
                    <path d="M23,28.0000127 C23,26.3431515 24.3348389,25 25.9995609,25 L74.0004391,25 C75.6570508,25 77,26.3522115 77,28.0000127 L77,48.8782015 L51.5584618,69.3326856 C50.6977471,70.0246829 49.3054477,70.0272515 48.4415382,69.3326856 L23,48.8782015 L23,28.0000127 Z" id="Rectangle-18" fill="#B2ECDE"></path>
                    <path d="M36,54.3873239 C36,54.5985915 36.1948052,54.7887324 36.4112554,54.7887324 L38.4242424,54.7887324 C38.6623377,54.7887324 38.8354978,54.5985915 38.8354978,54.3873239 L38.8354978,48.556338 L45.8917749,48.556338 L45.8917749,54.3873239 C45.8917749,54.5985915 46.0649351,54.7887324 46.3030303,54.7887324 L48.2943723,54.7887324 C48.5108225,54.7887324 48.7056277,54.5985915 48.7056277,54.3873239 L48.7056277,40.4014085 C48.7056277,40.1901408 48.5108225,40 48.2943723,40 L46.3030303,40 C46.0649351,40 45.8917749,40.1901408 45.8917749,40.4014085 L45.8917749,46 L38.8354978,46 L38.8354978,40.4014085 C38.8354978,40.1901408 38.6623377,40 38.4242424,40 L36.4112554,40 C36.1948052,40 36,40.1901408 36,40.4014085 L36,54.3873239 Z M55.6753247,43.3380282 C56.5194805,43.3380282 57.1904762,42.6830986 57.1904762,41.8802817 C57.1904762,41.0774648 56.5194805,40.4225352 55.6753247,40.4225352 C54.8528139,40.4225352 54.2034632,41.0774648 54.2034632,41.8802817 C54.2034632,42.6830986 54.8528139,43.3380282 55.6753247,43.3380282 Z M54.3982684,54.3873239 C54.3982684,54.5985915 54.5930736,54.7887324 54.8095238,54.7887324 L56.6060606,54.7887324 C56.8225108,54.7887324 57.017316,54.5985915 57.017316,54.3873239 L57.017316,46.7394366 C57.017316,46.5070423 56.8225108,46.3380282 56.6060606,46.3380282 L54.8095238,46.3380282 C54.5930736,46.3380282 54.3982684,46.5070423 54.3982684,46.7394366 L54.3982684,54.3873239 Z M63.8787879,49.0422535 L64.5714286,49.0422535 C64.7662338,49.0422535 64.961039,48.8732394 64.982684,48.7042254 L65.8268398,42.7676056 L65.8268398,40.4014085 C65.8268398,40.1901408 65.6320346,40 65.4155844,40 L63.034632,40 C62.8181818,40 62.6233766,40.1901408 62.6233766,40.4014085 L62.6233766,42.8098592 L63.4675325,48.7042254 C63.4891775,48.8732394 63.6839827,49.0422535 63.8787879,49.0422535 Z M62.4502165,53.2676056 C62.4502165,54.2183099 63.2510823,55 64.2034632,55 C65.1991342,55 66,54.2183099 66,53.2676056 C66,52.3169014 65.1991342,51.5140845 64.2034632,51.5140845 C63.2510823,51.5140845 62.4502165,52.3169014 62.4502165,53.2676056 Z" id="Hi!" fill="#FFFFFF"></path>
                </g>
            </g>
        </g>
    </g>
</svg>