<?xml version="1.0" encoding="utf-8"?>
<!-- Generator: Adobe Illustrator 16.0.0, SVG Export Plug-In . SVG Version: 6.00 Build 0)  -->
<!DOCTYPE svg PUBLIC "-//W3C//DTD SVG 1.1//EN" "http://www.w3.org/Graphics/SVG/1.1/DTD/svg11.dtd">
<svg version="1.1" id="Layer_1" xmlns="http://www.w3.org/2000/svg" xmlns:xlink="http://www.w3.org/1999/xlink" x="0px" y="0px"
	 width="1280px" height="221px" viewBox="0 0 1280 221" enable-background="new 0 0 1280 221" xml:space="preserve">
<path fill="#FFFFFF" d="M204.23,168.06c-2.117-1.559-2.343-3.896-2.343-3.896l-0.794-5.076h-25.306l-0.796,5.072
	c0,0-0.221,2.341-2.338,3.898c-2.116,1.557-3.786,2.893-2.116,3.119c1.609,0.218,16.785,0.02,17.904,0
	c1.122,0.02,16.294,0.218,17.904,0C208.013,170.955,206.343,169.621,204.23,168.06z"/>
<g>
	<path fill="#FFFFFF" d="M159.935,127.511c6.761-0.053,7.603-1.683,9.806-8.47c4.065-10.712,22.368,2.805,11.024,7.496
		C169.423,131.231,153.174,127.564,159.935,127.511z"/>
	<path fill="#FFFFFF" d="M229.257,56.92c-3.282-2.644-8.715-1.342-12.139,2.907l-34.686,49.277
		c-3.424,4.247-3.407,3.437-0.127,6.077c3.28,2.644,2.49,2.834,5.914-1.415L228.997,69.4
		C232.419,65.149,232.538,59.563,229.257,56.92z M220.339,62.819c0,0-0.508-0.591-2.197-1.942c2.533-4.137,7.513-3.379,7.513-3.379
		C220.931,60.286,220.339,62.819,220.339,62.819z"/>
</g>
<path fill="#FFFFFF" d="M244.638,73.571h-15.253l-6.736,7.33h19.547v58.64H134.689v-58.64h62.539l5.162-7.33h-70.146
	c-2.699,0-4.887,2.188-4.887,4.887v70.857c0,2.698,2.188,4.887,4.887,4.887h112.394c2.698,0,4.887-2.188,4.887-4.887V78.458
	C249.525,75.759,247.336,73.571,244.638,73.571z"/>
<path fill="#FFFFFF" d="M457.826,143.737l-41.333-22.54V108.71l41.333-22.416v14.667l-28.8,13.834l28.8,14.36V143.737z"/>
<path fill="#FFFFFF" d="M464.885,151.627l27.414-73.229h8.655l-27.47,73.229H464.885z"/>
<path fill="#FFFFFF" d="M510.23,143.737v-14.582l28.795-14.242L510.23,100.78V86.289l41.333,22.443v12.408L510.23,143.737z"/>
<g>
	<path fill="#FFFFFF" d="M749.395,53.874h66.345v16.586h8.293V53.874c0-4.576-3.709-8.293-8.293-8.293h-66.345
		c-4.576,0-8.293,3.717-8.293,8.293v16.586h8.293V53.874z"/>
	<path fill="#FFFFFF" d="M840.618,78.753H724.516c-4.576,0-8.293,3.717-8.293,8.293v41.465c0,4.584,3.717,8.293,8.293,8.293h16.586
		v33.172c0,4.583,3.717,8.293,8.293,8.293h66.345c4.584,0,8.293-3.709,8.293-8.293v-33.172h16.586c4.585,0,8.293-3.709,8.293-8.293
		V87.046C848.911,82.47,845.203,78.753,840.618,78.753z M815.739,169.976h-66.345v-58.051h66.345V169.976z M832.325,103.632
		c-4.585,0-8.293-3.709-8.293-8.293c0-4.576,3.708-8.293,8.293-8.293s8.293,3.717,8.293,8.293
		C840.618,99.923,836.91,103.632,832.325,103.632z"/>
	<rect x="757.688" y="120.218" fill="#FFFFFF" width="33.173" height="8.293"/>
	<rect x="757.688" y="136.804" fill="#FFFFFF" width="49.759" height="8.293"/>
	<rect x="757.688" y="153.39" fill="#FFFFFF" width="49.759" height="8.293"/>
</g>
<path fill="#FFFFFF" d="M1051.755,58.001c-25.344,0-45.887,20.542-45.887,45.887c0,25.346,20.543,45.887,45.887,45.887
	c25.347,0,45.887-20.541,45.887-45.887C1097.642,78.542,1077.102,58.001,1051.755,58.001z M1051.755,66.928
	c7.087,0,10.386,1.759,10.386,7.347c0,5.588-8.218,10.846-10.386,10.846c-2.176,0-10.396-5.257-10.396-10.846
	C1041.359,68.688,1044.668,66.928,1051.755,66.928z M1021.118,105.411c-5.317-1.724-5.977-5.403-3.795-12.137
	c2.187-6.747,4.874-9.353,10.197-7.633c5.303,1.724,7.784,11.16,7.106,13.224C1033.967,100.93,1026.437,107.13,1021.118,105.411z
	 M1043.317,133.806c-3.071,4.68-6.791,4.363-12.736,0.495c-5.919-3.871-7.729-7.149-4.68-11.824
	c3.049-4.687,12.796-4.598,14.617-3.412C1042.342,120.249,1046.351,129.156,1043.317,133.806z M1051.755,110.771
	c-3.803,0-6.882-3.079-6.882-6.883c0-3.805,3.077-6.883,6.882-6.883c3.81,0,6.884,3.077,6.884,6.883
	C1058.638,107.69,1055.564,110.771,1051.755,110.771z M1073.326,133.682c-5.77,4.095-9.486,4.583-12.715,0.026
	c-3.242-4.554,0.424-13.597,2.179-14.846c1.772-1.27,11.526-1.729,14.748,2.794C1080.775,126.224,1079.108,129.574,1073.326,133.682
	z M1082.371,105.411c-5.312,1.718-12.843-4.481-13.504-6.546c-0.684-2.065,1.803-11.5,7.101-13.224
	c5.328-1.718,8.016,0.886,10.198,7.633C1088.347,100.001,1087.689,103.687,1082.371,105.411z M1124.74,170.428l-3.207,9.676
	c-0.77-0.25-18.794-6.403-18.794-22.737c0-19.292,15.291-23.835,15.291-40.926c0-7.775-7.241-16.041-16.458-23.347
	c-1.401-6.5-4.031-12.548-7.657-17.87c15.911,9.769,34.312,24.641,34.312,41.218c0,10.604-4.507,17.289-8.485,23.187
	c-3.657,5.42-6.806,10.095-6.806,17.739C1112.938,166.272,1124.618,170.386,1124.74,170.428z"/>
</svg>
